# xmcd
#
# Track frame offsets:
#	182
#	27420
#	44385
#	55887
#	67920
#	81172
#	93265
#	109982
#	130670
#	144627
#	166670
#	181972
#	202250
#	215615
#	227822
#	236455
#
# Disc length: 3422 seconds
#
# Revision: 0
# Processed by: cddbd v1.5.1PL0 Copyright (c) Steve Scherf et al.
# Submitted via: audiograbber 1.83.01
#
DISCID=df0d5c10
DTITLE=Gil, Gilberto - O melhor de Gilberto Gil
DYEAR=1989
DGENRE=Brésil
TTITLE0=Oriente
TTITLE1=Louvação
TTITLE2=Bate Macumba
TTITLE3=Procissão
TTITLE4=Domingou
TTITLE5=Expresso 2222
TTITLE6=Domingo no Parque
TTITLE7=Aquele Abraço
TTITLE8=Lunik 9
TTITLE9=Só Quero um Xodó
TTITLE10=Chiclete com Banana
TTITLE11=Preciso Aprender a Só Ser
TTITLE12=Maracatu Atômico
TTITLE13=Roda
TTITLE14=Frevo Rasgado
TTITLE15=Back in Bahia
EXTD=
EXTT0=
EXTT1=
EXTT2=
EXTT3=
EXTT4=
EXTT5=
EXTT6=
EXTT7=
EXTT8=
EXTT9=
EXTT10=
EXTT11=
EXTT12=
EXTT13=
EXTT14=
EXTT15=
PLAYORDER=
